# Blender v2.77 (sub 0) OBJ File: 'PelvicAnatomyModelling04.blend'
# www.blender.org
mtllib DREModel_Coccyx.mtl
o DREModelCoccyx_DREModelSkin.007
v -12.238900 70.074936 -271.832001
v -11.283000 71.167435 -274.391998
v -12.295000 68.650040 -274.537994
v -11.650400 66.676239 -272.385986
v -9.933350 71.971535 -272.647003
v -10.804200 70.365135 -271.032013
v -10.086800 69.977837 -276.056000
v -9.865760 68.786835 -269.967010
v -10.011300 67.374840 -276.010010
v -9.293590 66.239334 -274.804993
v -6.901100 69.162338 -277.519012
v -9.304320 67.053337 -270.756012
v -9.362090 65.973236 -272.963989
v -6.368460 73.153740 -274.790985
v -1.208690 74.065140 -278.467987
v -5.403110 72.310440 -271.963989
v -3.924010 67.792740 -277.390991
v -2.010870 74.547234 -274.964996
v -1.553530 67.280640 -274.152008
v -2.736520 66.912239 -275.795013
v -3.437120 70.678940 -271.402008
v -3.897040 69.125038 -271.493988
v -1.259700 74.630836 -277.467987
v -1.483090 72.050034 -279.488007
v -1.814290 68.167435 -272.786011
v 0.292871 74.543434 -274.092010
v 2.398240 74.236336 -280.687988
v -0.730174 70.567535 -279.873993
v 6.297030 70.067734 -281.812012
v 0.875806 73.120438 -272.773987
v 6.031750 70.059334 -273.912994
v 7.061640 77.803337 -278.837006
v 6.427370 77.068840 -276.648987
v 5.931690 67.984138 -277.247009
v 6.813570 68.767639 -275.614990
v 5.686220 71.893539 -282.576996
v 6.440900 72.870438 -273.303009
v 6.843000 68.633339 -280.460999
v 6.371370 77.332436 -280.161011
v 6.987950 76.173340 -275.091003
v 7.846850 77.583435 -281.539001
v 7.160680 75.883835 -282.660004
v 7.214660 73.310036 -283.424011
vt 0.2236 0.4783
vt 0.2198 0.4754
vt 0.2040 0.4763
vt 0.1999 0.4913
vt 0.2310 0.4857
vt 0.2277 0.4885
vt 0.2048 0.4833
vt 0.2215 0.5017
vt 0.1884 0.4920
vt 0.1857 0.5030
vt 0.1913 0.5041
vt 0.2072 0.5090
vt 0.1916 0.5073
vt 0.2280 0.5011
vt 0.2157 0.5260
vt 0.2334 0.5164
vt 0.1808 0.5293
vt 0.2339 0.5263
vt 0.1895 0.5542
vt 0.1810 0.5437
vt 0.2240 0.5361
vt 0.2139 0.5375
vt 0.2237 0.5260
vt 0.1981 0.5284
vt 0.2011 0.5523
vt 0.2362 0.5444
vt 0.2049 0.5468
vt 0.1859 0.5378
vt 0.1682 0.5876
vt 0.2318 0.5558
vt 0.2034 0.6008
vt 0.2345 0.5738
vt 0.2391 0.5758
vt 0.1749 0.6005
vt 0.1868 0.6076
vt 0.1778 0.5753
vt 0.2246 0.5960
vt 0.1640 0.5991
vt 0.2259 0.5674
vt 0.2392 0.5860
vt 0.2207 0.5749
vt 0.2042 0.5730
vt 0.1826 0.5806
vn -0.8568 0.3130 0.4098
vn -0.6704 0.6543 -0.3500
vn -0.8953 -0.1230 -0.4281
vn -0.6891 -0.6847 0.2375
vn -0.3615 0.8848 0.2941
vn -0.3448 0.5550 0.7570
vn -0.5116 0.2514 -0.8217
vn -0.2139 -0.0314 0.9764
vn -0.4452 -0.4903 -0.7493
vn -0.2029 -0.9039 -0.3765
vn -0.3138 -0.1784 -0.9326
vn -0.0220 -0.6668 0.7449
vn -0.0550 -0.9874 0.1481
vn -0.3492 0.9253 -0.1479
vn -0.4454 0.6498 -0.6159
vn -0.0419 0.6713 0.7400
vn -0.1186 -0.7341 -0.6686
vn -0.2541 0.9439 0.2109
vn 0.2096 -0.9140 0.3473
vn 0.0738 -0.9799 -0.1854
vn 0.1552 0.1470 0.9769
vn 0.2664 -0.3129 0.9117
vn -0.3993 0.8684 -0.2941
vn -0.4234 0.2510 -0.8704
vn 0.2609 -0.6728 0.6923
vn -0.1028 0.7935 0.5998
vn -0.4486 0.4756 -0.7567
vn -0.3350 -0.1458 -0.9309
vn -0.2101 -0.5762 -0.7899
vn 0.0477 0.5114 0.8580
vn 0.2672 -0.5023 0.8224
vn -0.3478 0.9375 0.0084
vn -0.1911 0.9100 0.3679
vn 0.1550 -0.9861 0.0594
vn 0.2450 -0.8356 0.4917
vn -0.3540 -0.2351 -0.9052
vn 0.1698 0.1947 0.9661
vn -0.0631 -0.8459 -0.5296
vn -0.4772 0.8210 -0.3135
vn -0.0440 0.7222 0.6903
vn -0.4984 0.6722 -0.5475
vn -0.4713 0.4670 -0.7481
vn -0.4342 0.1600 -0.8865
usemtl None
s 1
f 1/1/1 2/2/2 3/3/3
f 1/1/1 3/3/3 4/4/4
f 2/2/2 1/1/1 5/5/5
f 1/1/1 6/6/6 5/5/5
f 7/7/7 3/3/3 2/2/2
f 6/6/6 1/1/1 8/8/8
f 9/9/9 3/3/3 7/7/7
f 1/1/1 4/4/4 8/8/8
f 3/3/3 9/9/9 4/4/4
f 4/4/4 9/9/9 10/10/10
f 11/11/11 9/9/9 7/7/7
f 8/8/8 4/4/4 12/12/12
f 4/4/4 13/13/13 12/12/12
f 4/4/4 10/10/10 13/13/13
f 2/2/2 5/5/5 14/14/14
f 2/2/2 15/15/15 7/7/7
f 5/5/5 6/6/6 16/16/16
f 15/15/15 2/2/2 14/14/14
f 16/16/16 6/6/6 8/8/8
f 9/9/9 17/17/17 10/10/10
f 14/14/14 5/5/5 18/18/18
f 18/18/18 5/5/5 16/16/16
f 19/19/19 12/12/12 13/13/13
f 13/13/13 10/10/10 20/20/20
f 21/21/21 16/16/16 8/8/8
f 21/21/21 8/8/8 22/22/22
f 8/8/8 12/12/12 22/22/22
f 9/9/9 11/11/11 17/17/17
f 13/13/13 20/20/20 19/19/19
f 15/15/15 14/14/14 23/23/23
f 10/10/10 17/17/17 20/20/20
f 7/7/7 24/24/24 11/11/11
f 12/12/12 25/25/25 22/22/22
f 12/12/12 19/19/19 25/25/25
f 7/7/7 15/15/15 24/24/24
f 23/23/23 14/14/14 18/18/18
f 26/26/26 18/18/18 16/16/16
f 24/24/24 15/15/15 27/27/27
f 24/24/24 28/28/28 11/11/11
f 29/29/29 11/11/11 28/28/28
f 11/11/11 29/29/29 17/17/17
f 30/30/30 26/26/26 16/16/16
f 21/21/21 30/30/30 16/16/16
f 22/22/22 25/25/25 31/31/31
f 23/23/23 18/18/18 32/32/32
f 33/33/33 18/18/18 26/26/26
f 19/19/19 34/34/34 35/35/35
f 35/35/35 25/25/25 19/19/19
f 34/34/34 19/19/19 20/20/20
f 31/31/31 25/25/25 35/35/35
f 32/32/32 18/18/18 33/33/33
f 32/32/32 15/15/15 23/23/23
f 36/36/36 28/28/28 24/24/24
f 22/22/22 37/37/37 21/21/21
f 28/28/28 36/36/36 29/29/29
f 29/29/29 38/38/38 17/17/17
f 15/15/15 39/39/39 27/27/27
f 32/32/32 39/39/39 15/15/15
f 40/40/40 33/33/33 26/26/26
f 39/39/39 41/41/41 27/27/27
f 37/37/37 30/30/30 21/21/21
f 37/37/37 22/22/22 31/31/31
f 27/27/27 41/41/41 42/42/42
f 40/40/40 26/26/26 30/30/30
f 27/27/27 43/43/43 24/24/24
f 24/24/24 43/43/43 36/36/36
f 43/43/43 27/27/27 42/42/42
f 37/37/37 40/40/40 30/30/30
f 20/20/20 17/17/17 38/38/38
f 20/20/20 38/38/38 34/34/34
